<svg enable-background="new 0 0 511.999 511.999" height="512" viewBox="0 0 511.999 511.999" width="512" xmlns="http://www.w3.org/2000/svg"><ellipse cx="90.081" cy="353.661" fill="#2698d1" rx="34.999" ry="35" transform="matrix(1 -.019 .019 1 -6.781 1.797)"/><ellipse cx="332.007" cy="353.661" fill="#176cad" rx="34.999" ry="35" transform="matrix(1 -.018 .018 1 -6.259 5.982)"/><path d="m241.002 403.66h30v70.016h-30z" fill="#878477"/><path d="m255.997 403.66h15.005v70.016h-15.005z" fill="#696453"/><path d="m52.121 403.66h30v70.016h-30z" fill="#878477"/><path d="m429.883 403.66h30v70.016h-30z" fill="#696453"/><path d="m496.999 488.66h-481.998c-8.284 0-15-6.716-15-15s6.716-15 15-15h481.998c8.284 0 15 6.716 15 15s-6.716 15-15 15z" fill="#a19d8d"/><path d="m496.999 458.659h-241.002v30h241.002c8.284 0 15-6.716 15-15s-6.716-15-15-15z" fill="#878477"/><path d="m496.999 418.66h-481.998c-8.284 0-15-6.716-15-15s6.716-15 15-15h481.998c8.284 0 15 6.716 15 15s-6.716 15-15 15z" fill="#c4c0ad"/><path d="m496.999 388.66h-241.002v30h241.002c8.284 0 15-6.716 15-15s-6.716-15-15-15z" fill="#a19d8d"/><path d="m422.85 348.772h-422.84v-265.433h265.519c40.569 0 79.54 12.357 112.697 35.736l95.994 67.684c23.655 16.679 37.778 43.917 37.778 72.862.001 49.158-39.991 89.151-89.148 89.151z" fill="#d1f7ff"/><path d="m474.221 186.759-95.994-67.684c-33.157-23.379-72.128-35.736-112.697-35.736h-9.524v265.433h166.844c49.157 0 89.149-39.993 89.149-89.151 0-28.945-14.123-56.183-37.778-72.862z" fill="#a3efff"/><path d="m474.221 186.759-61.582-43.421h-141.634c-5.453 0-10.476 2.959-13.12 7.729-2.644 4.769-2.49 10.597.399 15.221l49.999 79.999c2.741 4.386 7.548 7.05 12.72 7.05h190.765c-1.883-26.565-15.613-51.112-37.547-66.578z" fill="#2698d1"/><g fill="#72c5fc"><path d="m93.335 238.337h33.333c5.523 0 10-4.477 10-10v-59.999c0-5.523-4.477-10-10-10h-33.333c-5.523 0-10 4.477-10 10v59.999c0 5.523 4.478 10 10 10z"/><path d="m180.003 158.338h-3.334c-5.523 0-10 4.477-10 10v59.999c0 5.523 4.477 10 10 10h3.334c22.091 0 40-17.908 40-40-.001-22.09-17.909-39.999-40-39.999z"/><path d="m43.335 158.338h-33.325c-5.523 0-10 4.477-10 10v59.999c0 5.523 4.477 10 10 10h33.325c5.523 0 10-4.477 10-10v-59.999c0-5.523-4.477-10-10-10z"/></g><path d="m73.341 53.339h-58.341c-8.284 0-15-6.716-15-15s6.716-15 15-15h58.341c8.284 0 15 6.716 15 15 0 8.285-6.715 15-15 15z" fill="#a3efff"/></svg>