<svg enable-background="new 0 0 64 64" height="64" viewBox="0 0 64 64" width="64" xmlns="http://www.w3.org/2000/svg"><g fill="#fff"><path d="m60 9.3h-56c-2.1 0-4 1.9-4 4v26.7c0 2.1 1.9 4 4 4h25.3v5.3h-10.6c-1.6 0-2.7 1.1-2.7 2.7s1.1 2.7 2.7 2.7h26.7c1.6 0 2.7-1.1 2.7-2.7s-1.1-2.7-2.7-2.7h-10.7v-5.3h25.3c2.1 0 4-1.9 4-4v-26.7c0-2.1-1.9-4-4-4zm-1.3 29.4h-53.4v-24h53.3v24z"/><path d="m17.3 36c2.1 0 4-1.9 4-4 1.3-1.1 3.5-2.7 5.3-4.3.6.3.9.3 1.4.3 1.1 0 1.9-.3 2.7-1.1l4.8 1.6c.8.3 1.6.3 2.4-.3l4.8-3.2c.5.3 1.1.3 1.6.3 2.1 0 4-1.9 4-4s-2.1-4-4.3-4c-1.9 0-3.2 1.1-3.7 2.7l-4.5 2.9-4.5-1.3c-.9-1.1-2-1.6-3.3-1.6-1.9 0-3.5 1.3-3.7 2.9-2.1 1.6-5.1 4-6.4 5.1h-.3c-2.4 0-4.3 1.9-4.3 4s1.9 4 4 4z"/></g></svg>