<svg width="90" height="23" viewBox="0 0 90 23" fill="none" xmlns="http://www.w3.org/2000/svg">
<rect width="90" height="23" rx="4" fill="white"/>
<rect width="90" height="23" rx="4" fill="#222222"/>
<path d="M58 0H86C88.2091 0 90 1.79086 90 4V19C90 21.2091 88.2091 23 86 23H58V0Z" fill="#FFA500"/>
<path d="M66.4268 13.7744L67.7354 9.7168H68.6582L66.7637 15H66.0752L64.1611 9.7168H65.084L66.4268 13.7744ZM72.4033 15H71.4951V8.97949L69.6738 9.64844V8.82812L72.2617 7.85645H72.4033V15ZM75.1621 14.5264C75.1621 14.3701 75.2077 14.2399 75.2988 14.1357C75.3932 14.0316 75.5332 13.9795 75.7188 13.9795C75.9043 13.9795 76.0443 14.0316 76.1387 14.1357C76.2363 14.2399 76.2852 14.3701 76.2852 14.5264C76.2852 14.6761 76.2363 14.8014 76.1387 14.9023C76.0443 15.0033 75.9043 15.0537 75.7188 15.0537C75.5332 15.0537 75.3932 15.0033 75.2988 14.9023C75.2077 14.8014 75.1621 14.6761 75.1621 14.5264ZM82.1445 11.9678C82.1445 13.0257 81.9639 13.8118 81.6025 14.3262C81.2412 14.8405 80.6764 15.0977 79.9082 15.0977C79.1497 15.0977 78.5882 14.847 78.2236 14.3457C77.859 13.8411 77.6702 13.0892 77.6572 12.0898V10.8838C77.6572 9.83887 77.8379 9.0625 78.1992 8.55469C78.5605 8.04688 79.127 7.79297 79.8984 7.79297C80.6634 7.79297 81.2266 8.03874 81.5879 8.53027C81.9492 9.01855 82.1348 9.77376 82.1445 10.7959V11.9678ZM81.2412 10.7324C81.2412 9.96745 81.1338 9.41081 80.9189 9.0625C80.7041 8.71094 80.3639 8.53516 79.8984 8.53516C79.4362 8.53516 79.0993 8.70931 78.8877 9.05762C78.6761 9.40592 78.5671 9.94141 78.5605 10.6641V12.1094C78.5605 12.8776 78.6712 13.4456 78.8926 13.8135C79.1172 14.1781 79.4557 14.3604 79.9082 14.3604C80.3542 14.3604 80.6846 14.1878 80.8994 13.8428C81.1175 13.4977 81.2314 12.9541 81.2412 12.2119V10.7324Z" fill="white"/>
<path d="M9.93945 9.66016V16.7324C9.93945 17.9512 9.38672 18.5605 8.28125 18.5605C8.04297 18.5605 7.82227 18.5254 7.61914 18.4551V17.5879C7.74414 17.6191 7.9082 17.6348 8.11133 17.6348C8.35352 17.6348 8.53711 17.5684 8.66211 17.4355C8.79102 17.3066 8.85547 17.0801 8.85547 16.7559V9.66016H9.93945ZM8.74414 7.97852C8.74414 7.80664 8.79688 7.66016 8.90234 7.53906C9.01172 7.41406 9.16992 7.35156 9.37695 7.35156C9.58789 7.35156 9.74805 7.41211 9.85742 7.5332C9.9668 7.6543 10.0215 7.80273 10.0215 7.97852C10.0215 8.1543 9.9668 8.30078 9.85742 8.41797C9.74805 8.53516 9.58789 8.59375 9.37695 8.59375C9.16602 8.59375 9.00781 8.53516 8.90234 8.41797C8.79688 8.30078 8.74414 8.1543 8.74414 7.97852ZM15.3828 14.3184C15.3828 14.0254 15.2715 13.7988 15.0488 13.6387C14.8301 13.4746 14.4453 13.334 13.8945 13.2168C13.3477 13.0996 12.9121 12.959 12.5879 12.7949C12.2676 12.6309 12.0293 12.4355 11.873 12.209C11.7207 11.9824 11.6445 11.7129 11.6445 11.4004C11.6445 10.8809 11.8633 10.4414 12.3008 10.082C12.7422 9.72266 13.3047 9.54297 13.9883 9.54297C14.707 9.54297 15.2891 9.72852 15.7344 10.0996C16.1836 10.4707 16.4082 10.9453 16.4082 11.5234H15.3184C15.3184 11.2266 15.1914 10.9707 14.9375 10.7559C14.6875 10.541 14.3711 10.4336 13.9883 10.4336C13.5938 10.4336 13.2852 10.5195 13.0625 10.6914C12.8398 10.8633 12.7285 11.0879 12.7285 11.3652C12.7285 11.627 12.832 11.8242 13.0391 11.957C13.2461 12.0898 13.6191 12.2168 14.1582 12.3379C14.7012 12.459 15.1406 12.6035 15.4766 12.7715C15.8125 12.9395 16.0605 13.1426 16.2207 13.3809C16.3848 13.6152 16.4668 13.9023 16.4668 14.2422C16.4668 14.8086 16.2402 15.2637 15.7871 15.6074C15.334 15.9473 14.7461 16.1172 14.0234 16.1172C13.5156 16.1172 13.0664 16.0273 12.6758 15.8477C12.2852 15.668 11.9785 15.418 11.7559 15.0977C11.5371 14.7734 11.4277 14.4238 11.4277 14.0488H12.5117C12.5312 14.4121 12.6758 14.7012 12.9453 14.916C13.2188 15.127 13.5781 15.2324 14.0234 15.2324C14.4336 15.2324 14.7617 15.1504 15.0078 14.9863C15.2578 14.8184 15.3828 14.5957 15.3828 14.3184ZM18.0488 16V7.46875H20.457C21.1992 7.46875 21.8555 7.63281 22.4258 7.96094C22.9961 8.28906 23.4355 8.75586 23.7441 9.36133C24.0566 9.9668 24.2148 10.6621 24.2188 11.4473V11.9922C24.2188 12.7969 24.0625 13.502 23.75 14.1074C23.4414 14.7129 22.998 15.1777 22.4199 15.502C21.8457 15.8262 21.1758 15.9922 20.4102 16H18.0488ZM19.1738 8.39453V15.0801H20.3574C21.2246 15.0801 21.8984 14.8105 22.3789 14.2715C22.8633 13.7324 23.1055 12.9648 23.1055 11.9688V11.4707C23.1055 10.502 22.877 9.75 22.4199 9.21484C21.9668 8.67578 21.3223 8.40234 20.4863 8.39453H19.1738ZM28.3848 16.1172C27.5254 16.1172 26.8262 15.8359 26.2871 15.2734C25.748 14.707 25.4785 13.9512 25.4785 13.0059V12.8066C25.4785 12.1777 25.5977 11.6172 25.8359 11.125C26.0781 10.6289 26.4141 10.2422 26.8438 9.96484C27.2773 9.68359 27.7461 9.54297 28.25 9.54297C29.0742 9.54297 29.7148 9.81445 30.1719 10.3574C30.6289 10.9004 30.8574 11.6777 30.8574 12.6895V13.1406H26.5625C26.5781 13.7656 26.7598 14.2715 27.1074 14.6582C27.459 15.041 27.9043 15.2324 28.4434 15.2324C28.8262 15.2324 29.1504 15.1543 29.416 14.998C29.6816 14.8418 29.9141 14.6348 30.1133 14.377L30.7754 14.8926C30.2441 15.709 29.4473 16.1172 28.3848 16.1172ZM28.25 10.4336C27.8125 10.4336 27.4453 10.5938 27.1484 10.9141C26.8516 11.2305 26.668 11.6758 26.5977 12.25H29.7734V12.168C29.7422 11.6172 29.5938 11.1914 29.3281 10.8906C29.0625 10.5859 28.7031 10.4336 28.25 10.4336ZM33.2949 16H32.2109V7H33.2949V16ZM36.2129 16H35.1289V9.66016H36.2129V16ZM35.041 7.97852C35.041 7.80273 35.0938 7.6543 35.1992 7.5332C35.3086 7.41211 35.4688 7.35156 35.6797 7.35156C35.8906 7.35156 36.0508 7.41211 36.1602 7.5332C36.2695 7.6543 36.3242 7.80273 36.3242 7.97852C36.3242 8.1543 36.2695 8.30078 36.1602 8.41797C36.0508 8.53516 35.8906 8.59375 35.6797 8.59375C35.4688 8.59375 35.3086 8.53516 35.1992 8.41797C35.0938 8.30078 35.041 8.1543 35.041 7.97852ZM40.0449 14.5293L41.6152 9.66016H42.7227L40.4492 16H39.623L37.3262 9.66016H38.4336L40.0449 14.5293ZM46.8301 10.6328C46.666 10.6055 46.4883 10.5918 46.2969 10.5918C45.5859 10.5918 45.1035 10.8945 44.8496 11.5V16H43.7656V9.66016H44.8203L44.8379 10.3926C45.1934 9.82617 45.6973 9.54297 46.3496 9.54297C46.5605 9.54297 46.7207 9.57031 46.8301 9.625V10.6328Z" fill="white"/>
</svg>
