<svg width="90" height="21" viewBox="0 0 90 21" fill="none" xmlns="http://www.w3.org/2000/svg">
<rect width="90" height="21" rx="4" fill="white"/>
<rect width="90" height="21" rx="4" fill="#222222"/>
<path d="M58 0H86C88.2091 0 90 1.79086 90 4V17C90 19.2091 88.2091 21 86 21H58V0Z" fill="#FFA500"/>
<g filter="url(#filter0_d)">
<path d="M66.4268 12.7744L67.7354 8.7168H68.6582L66.7637 14H66.0752L64.1611 8.7168H65.084L66.4268 12.7744ZM72.4033 14H71.4951V7.97949L69.6738 8.64844V7.82812L72.2617 6.85645H72.4033V14ZM75.1621 13.5264C75.1621 13.3701 75.2077 13.2399 75.2988 13.1357C75.3932 13.0316 75.5332 12.9795 75.7188 12.9795C75.9043 12.9795 76.0443 13.0316 76.1387 13.1357C76.2363 13.2399 76.2852 13.3701 76.2852 13.5264C76.2852 13.6761 76.2363 13.8014 76.1387 13.9023C76.0443 14.0033 75.9043 14.0537 75.7188 14.0537C75.5332 14.0537 75.3932 14.0033 75.2988 13.9023C75.2077 13.8014 75.1621 13.6761 75.1621 13.5264ZM82.1445 10.9678C82.1445 12.0257 81.9639 12.8118 81.6025 13.3262C81.2412 13.8405 80.6764 14.0977 79.9082 14.0977C79.1497 14.0977 78.5882 13.847 78.2236 13.3457C77.859 12.8411 77.6702 12.0892 77.6572 11.0898V9.88379C77.6572 8.83887 77.8379 8.0625 78.1992 7.55469C78.5605 7.04688 79.127 6.79297 79.8984 6.79297C80.6634 6.79297 81.2266 7.03874 81.5879 7.53027C81.9492 8.01855 82.1348 8.77376 82.1445 9.7959V10.9678ZM81.2412 9.73242C81.2412 8.96745 81.1338 8.41081 80.9189 8.0625C80.7041 7.71094 80.3639 7.53516 79.8984 7.53516C79.4362 7.53516 79.0993 7.70931 78.8877 8.05762C78.6761 8.40592 78.5671 8.94141 78.5605 9.66406V11.1094C78.5605 11.8776 78.6712 12.4456 78.8926 12.8135C79.1172 13.1781 79.4557 13.3604 79.9082 13.3604C80.3542 13.3604 80.6846 13.1878 80.8994 12.8428C81.1175 12.4977 81.2314 11.9541 81.2412 11.2119V9.73242Z" fill="white"/>
</g>
<g filter="url(#filter1_d)">
<path d="M9.93945 8.66016V15.7324C9.93945 16.9512 9.38672 17.5605 8.28125 17.5605C8.04297 17.5605 7.82227 17.5254 7.61914 17.4551V16.5879C7.74414 16.6191 7.9082 16.6348 8.11133 16.6348C8.35352 16.6348 8.53711 16.5684 8.66211 16.4355C8.79102 16.3066 8.85547 16.0801 8.85547 15.7559V8.66016H9.93945ZM8.74414 6.97852C8.74414 6.80664 8.79688 6.66016 8.90234 6.53906C9.01172 6.41406 9.16992 6.35156 9.37695 6.35156C9.58789 6.35156 9.74805 6.41211 9.85742 6.5332C9.9668 6.6543 10.0215 6.80273 10.0215 6.97852C10.0215 7.1543 9.9668 7.30078 9.85742 7.41797C9.74805 7.53516 9.58789 7.59375 9.37695 7.59375C9.16602 7.59375 9.00781 7.53516 8.90234 7.41797C8.79688 7.30078 8.74414 7.1543 8.74414 6.97852ZM15.3828 13.3184C15.3828 13.0254 15.2715 12.7988 15.0488 12.6387C14.8301 12.4746 14.4453 12.334 13.8945 12.2168C13.3477 12.0996 12.9121 11.959 12.5879 11.7949C12.2676 11.6309 12.0293 11.4355 11.873 11.209C11.7207 10.9824 11.6445 10.7129 11.6445 10.4004C11.6445 9.88086 11.8633 9.44141 12.3008 9.08203C12.7422 8.72266 13.3047 8.54297 13.9883 8.54297C14.707 8.54297 15.2891 8.72852 15.7344 9.09961C16.1836 9.4707 16.4082 9.94531 16.4082 10.5234H15.3184C15.3184 10.2266 15.1914 9.9707 14.9375 9.75586C14.6875 9.54102 14.3711 9.43359 13.9883 9.43359C13.5938 9.43359 13.2852 9.51953 13.0625 9.69141C12.8398 9.86328 12.7285 10.0879 12.7285 10.3652C12.7285 10.627 12.832 10.8242 13.0391 10.957C13.2461 11.0898 13.6191 11.2168 14.1582 11.3379C14.7012 11.459 15.1406 11.6035 15.4766 11.7715C15.8125 11.9395 16.0605 12.1426 16.2207 12.3809C16.3848 12.6152 16.4668 12.9023 16.4668 13.2422C16.4668 13.8086 16.2402 14.2637 15.7871 14.6074C15.334 14.9473 14.7461 15.1172 14.0234 15.1172C13.5156 15.1172 13.0664 15.0273 12.6758 14.8477C12.2852 14.668 11.9785 14.418 11.7559 14.0977C11.5371 13.7734 11.4277 13.4238 11.4277 13.0488H12.5117C12.5312 13.4121 12.6758 13.7012 12.9453 13.916C13.2188 14.127 13.5781 14.2324 14.0234 14.2324C14.4336 14.2324 14.7617 14.1504 15.0078 13.9863C15.2578 13.8184 15.3828 13.5957 15.3828 13.3184ZM18.0488 15V6.46875H20.457C21.1992 6.46875 21.8555 6.63281 22.4258 6.96094C22.9961 7.28906 23.4355 7.75586 23.7441 8.36133C24.0566 8.9668 24.2148 9.66211 24.2188 10.4473V10.9922C24.2188 11.7969 24.0625 12.502 23.75 13.1074C23.4414 13.7129 22.998 14.1777 22.4199 14.502C21.8457 14.8262 21.1758 14.9922 20.4102 15H18.0488ZM19.1738 7.39453V14.0801H20.3574C21.2246 14.0801 21.8984 13.8105 22.3789 13.2715C22.8633 12.7324 23.1055 11.9648 23.1055 10.9688V10.4707C23.1055 9.50195 22.877 8.75 22.4199 8.21484C21.9668 7.67578 21.3223 7.40234 20.4863 7.39453H19.1738ZM28.3848 15.1172C27.5254 15.1172 26.8262 14.8359 26.2871 14.2734C25.748 13.707 25.4785 12.9512 25.4785 12.0059V11.8066C25.4785 11.1777 25.5977 10.6172 25.8359 10.125C26.0781 9.62891 26.4141 9.24219 26.8438 8.96484C27.2773 8.68359 27.7461 8.54297 28.25 8.54297C29.0742 8.54297 29.7148 8.81445 30.1719 9.35742C30.6289 9.90039 30.8574 10.6777 30.8574 11.6895V12.1406H26.5625C26.5781 12.7656 26.7598 13.2715 27.1074 13.6582C27.459 14.041 27.9043 14.2324 28.4434 14.2324C28.8262 14.2324 29.1504 14.1543 29.416 13.998C29.6816 13.8418 29.9141 13.6348 30.1133 13.377L30.7754 13.8926C30.2441 14.709 29.4473 15.1172 28.3848 15.1172ZM28.25 9.43359C27.8125 9.43359 27.4453 9.59375 27.1484 9.91406C26.8516 10.2305 26.668 10.6758 26.5977 11.25H29.7734V11.168C29.7422 10.6172 29.5938 10.1914 29.3281 9.89062C29.0625 9.58594 28.7031 9.43359 28.25 9.43359ZM33.2949 15H32.2109V6H33.2949V15ZM36.2129 15H35.1289V8.66016H36.2129V15ZM35.041 6.97852C35.041 6.80273 35.0938 6.6543 35.1992 6.5332C35.3086 6.41211 35.4688 6.35156 35.6797 6.35156C35.8906 6.35156 36.0508 6.41211 36.1602 6.5332C36.2695 6.6543 36.3242 6.80273 36.3242 6.97852C36.3242 7.1543 36.2695 7.30078 36.1602 7.41797C36.0508 7.53516 35.8906 7.59375 35.6797 7.59375C35.4688 7.59375 35.3086 7.53516 35.1992 7.41797C35.0938 7.30078 35.041 7.1543 35.041 6.97852ZM40.0449 13.5293L41.6152 8.66016H42.7227L40.4492 15H39.623L37.3262 8.66016H38.4336L40.0449 13.5293ZM46.8301 9.63281C46.666 9.60547 46.4883 9.5918 46.2969 9.5918C45.5859 9.5918 45.1035 9.89453 44.8496 10.5V15H43.7656V8.66016H44.8203L44.8379 9.39258C45.1934 8.82617 45.6973 8.54297 46.3496 8.54297C46.5605 8.54297 46.7207 8.57031 46.8301 8.625V9.63281Z" fill="white"/>
</g>
<defs>
<filter id="filter0_d" x="63.1611" y="6.79297" width="19.9834" height="9.50469" filterUnits="userSpaceOnUse" color-interpolation-filters="sRGB">
<feFlood flood-opacity="0" result="BackgroundImageFix"/>
<feColorMatrix in="SourceAlpha" type="matrix" values="0 0 0 0 0 0 0 0 0 0 0 0 0 0 0 0 0 0 127 0"/>
<feOffset dy="1.2"/>
<feGaussianBlur stdDeviation="0.5"/>
<feColorMatrix type="matrix" values="0 0 0 0 0 0 0 0 0 0 0 0 0 0 0 0 0 0 0.29 0"/>
<feBlend mode="normal" in2="BackgroundImageFix" result="effect1_dropShadow"/>
<feBlend mode="normal" in="SourceGraphic" in2="effect1_dropShadow" result="shape"/>
</filter>
<filter id="filter1_d" x="6.61914" y="6" width="41.2109" height="13.7605" filterUnits="userSpaceOnUse" color-interpolation-filters="sRGB">
<feFlood flood-opacity="0" result="BackgroundImageFix"/>
<feColorMatrix in="SourceAlpha" type="matrix" values="0 0 0 0 0 0 0 0 0 0 0 0 0 0 0 0 0 0 127 0"/>
<feOffset dy="1.2"/>
<feGaussianBlur stdDeviation="0.5"/>
<feColorMatrix type="matrix" values="0 0 0 0 0 0 0 0 0 0 0 0 0 0 0 0 0 0 0.29 0"/>
<feBlend mode="normal" in2="BackgroundImageFix" result="effect1_dropShadow"/>
<feBlend mode="normal" in="SourceGraphic" in2="effect1_dropShadow" result="shape"/>
</filter>
</defs>
</svg>
